HIERARCHY
ROOT Hips
{
	OFFSET 0.000000 100.481300 0.000000
	CHANNELS 6 Xposition Yposition Zposition Xrotation Yrotation Zrotation 
	JOINT Spine
	{
		OFFSET -0.279200 12.230698 -2.892100
		CHANNELS 3 Xrotation Yrotation Zrotation
		JOINT Spine1
		{
			OFFSET -0.232667 10.192268 -1.242267
			CHANNELS 3 Xrotation Yrotation Zrotation
			JOINT Spine1_split
			{
				OFFSET -0.232667 10.192268 -1.242267
				CHANNELS 3 Xrotation Yrotation Zrotation
				JOINT Spine2
				{
					OFFSET -0.232667 10.192268 -1.242267
					CHANNELS 3 Xrotation Yrotation Zrotation
					JOINT Neck
					{
						OFFSET -0.418800 17.814194 8.416900
						CHANNELS 3 Xrotation Yrotation Zrotation
						JOINT Head
						{
							OFFSET 0.000000 7.031097 3.806800
							CHANNELS 3 Xrotation Yrotation Zrotation
							JOINT HeadTop_End
							{
								OFFSET 0.000000 24.646606 12.978600
								CHANNELS 3 Xrotation Yrotation Zrotation
								End Site
								{
									OFFSET 0.000000 0.000000 0.000000
								}
							}
						}
					}
					JOINT LeftShoulder
					{
						OFFSET 8.476499 7.247704 -3.868750
						CHANNELS 3 Xrotation Yrotation Zrotation
						JOINT LeftShoulder_split
						{
							OFFSET 8.476499 7.247704 -3.868750
							CHANNELS 3 Xrotation Yrotation Zrotation
							JOINT LeftArm
							{
								OFFSET 9.308998 -2.777710 0.208600
								CHANNELS 3 Xrotation Yrotation Zrotation
								JOINT LeftForeArm
								{
									OFFSET 29.972298 0.000000 0.000000
									CHANNELS 3 Xrotation Yrotation Zrotation
									JOINT LeftHand
									{
										OFFSET 26.026505 0.000000 0.000000
										CHANNELS 3 Xrotation Yrotation Zrotation
										JOINT LeftHandThumb1
										{
											OFFSET 12.240501 -7.147949 9.207150
											CHANNELS 3 Xrotation Yrotation Zrotation
											JOINT LeftHandThumb2
											{
												OFFSET 4.138618 -2.389435 2.389433
												CHANNELS 3 Xrotation Yrotation Zrotation
												JOINT LeftHandThumb3
												{
													OFFSET 2.726913 -1.574387 1.574386
													CHANNELS 3 Xrotation Yrotation Zrotation
													JOINT LeftHandThumb4
													{
														OFFSET 3.941010 -2.275345 2.275342
														CHANNELS 3 Xrotation Yrotation Zrotation
														End Site
														{
															OFFSET 0.000000 0.000000 0.000000
														}
													}
												}
											}
										}
										JOINT LeftHandIndex1
										{
											OFFSET 24.424698 -1.985611 5.953459
											CHANNELS 3 Xrotation Yrotation Zrotation
											JOINT LeftHandIndex2
											{
												OFFSET 6.426697 0.000000 0.000000
												CHANNELS 3 Xrotation Yrotation Zrotation
												JOINT LeftHandIndex3
												{
													OFFSET 5.337898 0.000000 0.000000
													CHANNELS 3 Xrotation Yrotation Zrotation
													JOINT LeftHandIndex4
													{
														OFFSET 4.409401 0.000000 0.000000
														CHANNELS 3 Xrotation Yrotation Zrotation
														End Site
														{
															OFFSET 0.000000 0.000000 0.000000
														}
													}
												}
											}
										}
										JOINT LeftHandMiddle1
										{
											OFFSET 23.810104 0.000000 0.000000
											CHANNELS 3 Xrotation Yrotation Zrotation
											JOINT LeftHandMiddle2
											{
												OFFSET 7.176498 0.000000 0.000000
												CHANNELS 3 Xrotation Yrotation Zrotation
												JOINT LeftHandMiddle3
												{
													OFFSET 6.774902 0.000000 0.000000
													CHANNELS 3 Xrotation Yrotation Zrotation
													JOINT LeftHandMiddle4
													{
														OFFSET 5.403328 0.000000 0.000000
														CHANNELS 3 Xrotation Yrotation Zrotation
														End Site
														{
															OFFSET 0.000000 0.000000 0.000000
														}
													}
												}
											}
										}
										JOINT LeftHandRing1
										{
											OFFSET 22.908401 -0.839279 -6.020567
											CHANNELS 3 Xrotation Yrotation Zrotation
											JOINT LeftHandRing2
											{
												OFFSET 6.337502 0.000000 0.000000
												CHANNELS 3 Xrotation Yrotation Zrotation
												JOINT LeftHandRing3
												{
													OFFSET 5.779297 0.000000 0.000000
													CHANNELS 3 Xrotation Yrotation Zrotation
													JOINT LeftHandRing4
													{
														OFFSET 4.965698 0.000000 0.000000
														CHANNELS 3 Xrotation Yrotation Zrotation
														End Site
														{
															OFFSET 0.000000 0.000000 0.000000
														}
													}
												}
											}
										}
										JOINT LeftHandPinky1
										{
											OFFSET 20.037003 -1.530319 -10.950146
											CHANNELS 3 Xrotation Yrotation Zrotation
											JOINT LeftHandPinky2
											{
												OFFSET 5.254700 0.000000 0.000000
												CHANNELS 3 Xrotation Yrotation Zrotation
												JOINT LeftHandPinky3
												{
													OFFSET 4.810204 0.000000 0.000000
													CHANNELS 3 Xrotation Yrotation Zrotation
													JOINT LeftHandPinky4
													{
														OFFSET 3.647202 0.000000 0.000000
														CHANNELS 3 Xrotation Yrotation Zrotation
														End Site
														{
															OFFSET 0.000000 0.000000 0.000000
														}
													}
												}
											}
										}
									}
								}
							}
						}
					}
					JOINT RightShoulder
					{
						OFFSET -7.570500 7.247704 -3.868750
						CHANNELS 3 Xrotation Yrotation Zrotation
						JOINT RightShoulder_split
						{
							OFFSET -7.570500 7.247704 -3.868750
							CHANNELS 3 Xrotation Yrotation Zrotation
							JOINT RightArm
							{
								OFFSET -9.308998 -2.777710 0.208500
								CHANNELS 3 Xrotation Yrotation Zrotation
								JOINT RightForeArm
								{
									OFFSET -29.972300 0.000000 0.000000
									CHANNELS 3 Xrotation Yrotation Zrotation
									JOINT RightHand
									{
										OFFSET -26.026505 0.000000 0.000000
										CHANNELS 3 Xrotation Yrotation Zrotation
										JOINT RightHandThumb1
										{
											OFFSET -12.240601 -7.148026 9.207092
											CHANNELS 3 Xrotation Yrotation Zrotation
											JOINT RightHandThumb2
											{
												OFFSET -4.138618 -2.389435 2.389433
												CHANNELS 3 Xrotation Yrotation Zrotation
												JOINT RightHandThumb3
												{
													OFFSET -2.726974 -1.574417 1.574421
													CHANNELS 3 Xrotation Yrotation Zrotation
													JOINT RightHandThumb4
													{
														OFFSET -3.941010 -2.275345 2.275343
														CHANNELS 3 Xrotation Yrotation Zrotation
														End Site
														{
															OFFSET 0.000000 0.000000 0.000000
														}
													}
												}
											}
										}
										JOINT RightHandIndex1
										{
											OFFSET -24.424698 -1.985657 5.953444
											CHANNELS 3 Xrotation Yrotation Zrotation
											JOINT RightHandIndex2
											{
												OFFSET -6.426697 0.000000 0.000000
												CHANNELS 3 Xrotation Yrotation Zrotation
												JOINT RightHandIndex3
												{
													OFFSET -5.337898 0.000000 0.000000
													CHANNELS 3 Xrotation Yrotation Zrotation
													JOINT RightHandIndex4
													{
														OFFSET -4.409401 0.000000 0.000000
														CHANNELS 3 Xrotation Yrotation Zrotation
														End Site
														{
															OFFSET 0.000000 0.000000 0.000000
														}
													}
												}
											}
										}
										JOINT RightHandMiddle1
										{
											OFFSET -23.810097 0.000000 0.000000
											CHANNELS 3 Xrotation Yrotation Zrotation
											JOINT RightHandMiddle2
											{
												OFFSET -7.176498 0.000000 0.000000
												CHANNELS 3 Xrotation Yrotation Zrotation
												JOINT RightHandMiddle3
												{
													OFFSET -6.774902 0.000000 0.000000
													CHANNELS 3 Xrotation Yrotation Zrotation
													JOINT RightHandMiddle4
													{
														OFFSET -5.403328 0.000000 0.000000
														CHANNELS 3 Xrotation Yrotation Zrotation
														End Site
														{
															OFFSET 0.000000 0.000000 0.000000
														}
													}
												}
											}
										}
										JOINT RightHandRing1
										{
											OFFSET -22.908302 -0.839325 -6.020576
											CHANNELS 3 Xrotation Yrotation Zrotation
											JOINT RightHandRing2
											{
												OFFSET -6.337502 0.000000 0.000000
												CHANNELS 3 Xrotation Yrotation Zrotation
												JOINT RightHandRing3
												{
													OFFSET -5.779297 0.000000 0.000000
													CHANNELS 3 Xrotation Yrotation Zrotation
													JOINT RightHandRing4
													{
														OFFSET -4.965698 0.000000 0.000000
														CHANNELS 3 Xrotation Yrotation Zrotation
														End Site
														{
															OFFSET 0.000000 0.000000 0.000000
														}
													}
												}
											}
										}
										JOINT RightHandPinky1
										{
											OFFSET -20.037003 -1.530334 -10.950259
											CHANNELS 3 Xrotation Yrotation Zrotation
											JOINT RightHandPinky2
											{
												OFFSET -5.254700 0.000000 0.000000
												CHANNELS 3 Xrotation Yrotation Zrotation
												JOINT RightHandPinky3
												{
													OFFSET -4.810204 0.000000 0.000000
													CHANNELS 3 Xrotation Yrotation Zrotation
													JOINT RightHandPinky4
													{
														OFFSET -3.647202 0.000000 0.000000
														CHANNELS 3 Xrotation Yrotation Zrotation
														End Site
														{
															OFFSET 0.000000 0.000000 0.000000
														}
													}
												}
											}
										}
									}
								}
							}
						}
					}
				}
			}
		}
	}
	JOINT LeftUpLeg
	{
		OFFSET 15.427100 -6.655098 0.678600
		CHANNELS 3 Xrotation Yrotation Zrotation
		JOINT LeftLeg
		{
			OFFSET 4.081073 -39.591068 13.024000
			CHANNELS 3 Xrotation Yrotation Zrotation
			JOINT LeftFoot
			{
				OFFSET -4.081074 -37.707932 -15.979700
				CHANNELS 3 Xrotation Yrotation Zrotation
				JOINT LeftToeBase
				{
					OFFSET 5.346399 -15.068900 20.645000
					CHANNELS 3 Xrotation Yrotation Zrotation
					JOINT LeftToe_End
					{
						OFFSET 2.754700 0.931300 11.300900
						CHANNELS 3 Xrotation Yrotation Zrotation
						End Site
						{
							OFFSET 0.000000 0.000000 0.000000
						}
					}
				}
			}
		}
	}
	JOINT RightUpLeg
	{
		OFFSET -15.569500 -6.655098 0.678600
		CHANNELS 3 Xrotation Yrotation Zrotation
		JOINT RightLeg
		{
			OFFSET -4.081825 -39.591045 13.023800
			CHANNELS 3 Xrotation Yrotation Zrotation
			JOINT RightFoot
			{
				OFFSET 4.081824 -37.707954 -15.979600
				CHANNELS 3 Xrotation Yrotation Zrotation
				JOINT RightToeBase
				{
					OFFSET -5.346400 -15.068900 20.645000
					CHANNELS 3 Xrotation Yrotation Zrotation
					JOINT RightToe_End
					{
						OFFSET -2.754700 0.931300 11.300900
						CHANNELS 3 Xrotation Yrotation Zrotation
						End Site
						{
							OFFSET 0.000000 0.000000 0.000000
						}
					}
				}
			}
		}
	}
}
MOTION
Frames: 6
Frame Time: 0.016667
35.708759 86.007141 229.474777 148.831803 28.428916 200.123996 15.628144 -0.424117 -4.087130 11.179209 1.496555 -1.690593 0.000000 0.000000 0.000000 11.176926 1.458480 -1.755960 -5.323168 6.287504 -1.210497 -58.746723 28.769699 8.224007 -0.000000 0.000001 -0.000000 0.679281 -4.570061 -5.408213 0.000000 0.000000 0.000000 -7.347364 -16.947835 -52.221243 -0.000007 -39.502058 -0.000011 -25.552446 -15.892590 19.611227 -1.765958 13.580032 7.641502 4.742564 17.876576 1.476410 -0.125160 6.527493 3.024026 -0.000001 0.000001 0.000003 0.103561 1.192119 -9.929409 0.103562 1.192123 -9.929400 0.025929 0.598308 -4.964155 0.000001 0.000000 -0.000000 0.103235 1.190220 -9.913417 0.103900 1.194022 -9.945377 0.025926 0.598306 -4.964169 -0.000004 0.000000 0.000000 0.103561 1.192119 -9.929411 0.103559 1.192126 -9.929404 0.025933 0.598307 -4.964149 -0.000002 -0.000000 0.000000 0.787119 5.188581 -9.457059 0.096224 -2.863096 -10.432499 0.025944 0.598307 -4.964157 0.000000 0.000000 -0.000000 1.594479 3.261022 6.782108 0.000000 0.000000 0.000000 -3.990970 33.404994 42.645249 -0.000011 33.641728 0.000027 -1.508943 5.491319 -1.096642 -2.082014 -13.461648 -8.150988 5.520674 -18.558749 -0.893710 -0.816668 -4.811722 -2.622798 -0.000001 -0.000002 -0.000001 0.104542 -1.203683 9.928040 0.104548 -1.203675 9.928033 0.026178 -0.604109 4.963461 -0.000001 -0.000000 0.000001 0.104540 -1.203684 9.928039 0.104548 -1.203674 9.928033 0.026180 -0.604114 4.963458 -0.000001 -0.000002 -0.000003 0.104542 -1.203681 9.928039 0.104549 -1.203678 9.928035 0.026176 -0.604111 4.963466 -0.000001 0.000001 -0.000003 0.104540 -1.203684 9.928039 0.104547 -1.203676 9.928032 0.026177 -0.604108 4.963465 0.000001 0.000001 0.000001 -68.667409 26.978829 23.377769 29.078069 -2.163721 4.970353 9.692045 0.239889 -11.398735 -0.237596 0.000001 0.000000 -0.000000 0.000000 0.000000 -64.398657 -20.219153 -15.152071 43.874495 8.806041 -9.825780 -12.090081 7.536041 5.336321 0.000003 0.000002 0.000003 0.000000 -0.000001 -0.000000 
35.922966 86.040886 229.710968 149.944659 28.641416 200.058918 15.676987 -0.498466 -4.015840 11.244314 1.411612 -1.634690 0.000000 0.000000 0.000000 11.244378 1.359442 -1.691652 -4.891602 6.207626 -1.571775 -58.051595 28.398368 7.817770 -0.000000 0.000000 0.000000 0.699089 -4.359874 -5.527558 0.000000 0.000000 0.000000 -8.886033 -19.670636 -51.048103 0.000017 -37.582481 0.000017 -24.098950 -16.275238 18.961747 -1.765964 13.580037 7.641501 4.742565 17.876570 1.476416 -0.125164 6.527498 3.024039 -0.000003 0.000002 0.000004 0.103564 1.192119 -9.929411 0.103563 1.192122 -9.929403 0.025930 0.598308 -4.964153 -0.000000 0.000000 -0.000000 0.103232 1.190222 -9.913418 0.103902 1.194022 -9.945374 0.025927 0.598307 -4.964170 -0.000000 -0.000000 -0.000000 0.103564 1.192119 -9.929413 0.103562 1.192122 -9.929403 0.025934 0.598307 -4.964149 0.000002 -0.000000 0.000000 0.787117 5.188581 -9.457060 0.096226 -2.863097 -10.432498 0.025937 0.598306 -4.964156 -0.000003 0.000000 -0.000000 1.600071 3.351349 6.666495 0.000000 0.000000 0.000000 -3.315563 33.242520 44.633473 -0.000001 30.632678 -0.000003 -3.900143 2.699655 0.206850 -2.082013 -13.461649 -8.150987 5.520674 -18.558749 -0.893712 -0.816674 -4.811726 -2.622798 0.000000 -0.000002 0.000002 0.104542 -1.203683 9.928040 0.104550 -1.203674 9.928035 0.026179 -0.604112 4.963463 -0.000001 0.000000 -0.000000 0.104542 -1.203684 9.928039 0.104552 -1.203676 9.928033 0.026180 -0.604113 4.963461 -0.000001 0.000001 0.000000 0.104542 -1.203681 9.928041 0.104551 -1.203680 9.928038 0.026178 -0.604112 4.963464 0.000001 -0.000002 0.000000 0.104541 -1.203684 9.928039 0.104551 -1.203678 9.928033 0.026179 -0.604109 4.963462 -0.000000 -0.000000 0.000001 -67.713976 28.384735 23.535058 28.464750 -3.073789 4.740969 9.589382 0.262347 -10.984347 -0.000008 -0.000001 0.000001 -0.000000 0.000000 -0.000000 -63.423156 -19.440863 -15.042884 44.236202 8.775986 -9.835275 -12.364989 6.989867 5.164973 -0.000002 0.000007 0.000001 -0.000000 -0.000001 -0.000000 
36.156830 85.963516 229.831131 151.442042 28.799984 199.724676 15.709018 -0.548466 -3.863363 11.298313 1.289825 -1.543754 0.000000 0.000000 0.000000 11.300029 1.227190 -1.591297 -4.701393 6.175773 -2.096392 -56.789635 27.923741 7.735831 -0.000000 0.000000 0.000001 0.713090 -3.812084 -5.705421 0.000000 0.000000 0.000000 -10.233147 -22.867603 -49.821418 -0.000013 -35.663109 -0.000009 -23.015376 -16.767892 16.827086 -1.765961 13.580031 7.641504 4.742561 17.876574 1.476412 -0.125157 6.527494 3.024030 0.000000 -0.000000 0.000003 0.103559 1.192118 -9.929409 0.103564 1.192124 -9.929403 0.025933 0.598308 -4.964155 0.000002 -0.000001 -0.000000 0.103228 1.190221 -9.913418 0.103898 1.194022 -9.945374 0.025929 0.598307 -4.964171 0.000002 -0.000000 -0.000000 0.103559 1.192118 -9.929410 0.103567 1.192124 -9.929401 0.025939 0.598308 -4.964150 0.000001 0.000000 -0.000000 0.787113 5.188579 -9.457058 0.096225 -2.863095 -10.432498 0.025939 0.598307 -4.964158 0.000002 0.000000 -0.000000 1.592946 3.421390 6.456786 0.000000 0.000000 0.000000 -2.599037 33.653274 46.550434 -0.000024 26.450847 0.000013 -8.655976 3.202494 0.851972 -2.082013 -13.461647 -8.150987 5.520677 -18.558744 -0.893713 -0.816671 -4.811728 -2.622794 -0.000001 0.000002 -0.000001 0.104543 -1.203683 9.928040 0.104552 -1.203673 9.928034 0.026179 -0.604110 4.963467 -0.000000 -0.000000 0.000001 0.104544 -1.203684 9.928039 0.104551 -1.203674 9.928033 0.026180 -0.604115 4.963463 0.000001 -0.000001 -0.000000 0.104543 -1.203682 9.928039 0.104551 -1.203678 9.928035 0.026178 -0.604113 4.963467 -0.000001 0.000000 0.000001 0.104543 -1.203684 9.928039 0.104551 -1.203676 9.928035 0.026177 -0.604110 4.963465 0.000001 0.000001 -0.000002 -67.023219 29.996927 23.686471 28.390503 -4.435117 4.960682 9.805193 0.186495 -10.683410 -0.000011 -0.000003 0.000003 0.000000 0.000000 -0.000000 -62.180369 -18.780969 -15.129895 44.878629 8.784912 -9.847182 -12.926903 6.406423 5.020351 0.000003 -0.000001 0.000001 0.000000 -0.000001 -0.000000 
36.414009 85.836990 229.902512 153.130082 28.813884 199.090725 15.652485 -0.598057 -3.603361 11.282001 1.136263 -1.387480 0.000000 0.000000 0.000000 11.284211 1.073094 -1.426241 -4.810502 6.231623 -2.702021 -54.792471 27.480831 8.120776 -0.000000 0.000001 0.000001 0.705017 -3.075858 -5.855092 0.000000 0.000000 0.000000 -11.428531 -25.964734 -48.874870 0.000013 -34.245578 0.000015 -22.775606 -16.766885 13.784981 -1.765964 13.580033 7.641503 4.742565 17.876576 1.476413 -0.125162 6.527494 3.024032 0.000001 0.000002 0.000005 0.103559 1.192118 -9.929411 0.103565 1.192124 -9.929404 0.025925 0.598308 -4.964155 0.000003 0.000000 0.000000 0.103230 1.190222 -9.913421 0.103903 1.194023 -9.945377 0.025930 0.598307 -4.964170 -0.000005 0.000000 0.000001 0.103559 1.192118 -9.929412 0.103564 1.192124 -9.929403 0.025930 0.598309 -4.964151 -0.000002 0.000001 0.000000 0.787112 5.188581 -9.457059 0.096220 -2.863095 -10.432500 0.025939 0.598306 -4.964158 -0.000003 0.000000 0.000001 1.583470 3.469106 6.266596 0.000000 0.000000 0.000000 -1.950622 34.322063 48.394424 0.000003 21.196239 -0.000005 -11.889299 6.876534 2.098390 -2.082012 -13.461650 -8.150989 5.520677 -18.558742 -0.893712 -0.816670 -4.811727 -2.622796 -0.000001 0.000000 -0.000000 0.104543 -1.203686 9.928040 0.104552 -1.203674 9.928034 0.026178 -0.604109 4.963464 -0.000001 0.000000 0.000001 0.104543 -1.203685 9.928040 0.104551 -1.203676 9.928033 0.026180 -0.604114 4.963466 0.000001 -0.000000 0.000004 0.104542 -1.203684 9.928039 0.104551 -1.203678 9.928039 0.026179 -0.604112 4.963464 -0.000000 0.000000 -0.000001 0.104543 -1.203685 9.928040 0.104550 -1.203677 9.928032 0.026178 -0.604111 4.963463 -0.000001 0.000000 -0.000002 -66.347734 31.345914 23.674506 28.634147 -5.815438 5.578751 9.870982 0.096617 -10.709524 -0.000003 0.000002 0.000001 0.000000 0.000000 -0.000000 -60.728291 -18.379660 -15.250597 45.595891 8.830618 -9.858803 -13.651894 5.755342 4.859519 0.000001 0.000005 0.000002 0.000000 0.000002 0.000000 
36.691757 85.696304 229.938950 154.875277 28.656957 198.185957 15.471155 -0.633375 -3.258162 11.166941 0.977151 -1.178233 0.000000 0.000000 0.000000 11.168666 0.924272 -1.210394 -5.071595 6.324879 -3.217768 -52.425230 27.064259 8.775296 -0.000000 0.000000 -0.000001 0.671325 -2.343986 -5.899525 0.000000 0.000000 0.000000 -12.432981 -28.603316 -48.363251 0.000003 -33.652943 0.000014 -23.235107 -16.174305 10.842037 -1.765963 13.580036 7.641500 4.742564 17.876574 1.476414 -0.125159 6.527495 3.024031 0.000002 -0.000002 -0.000001 0.103563 1.192120 -9.929415 0.103562 1.192124 -9.929403 0.025933 0.598309 -4.964155 -0.000000 -0.000001 -0.000000 0.103231 1.190222 -9.913419 0.103904 1.194022 -9.945375 0.025935 0.598308 -4.964170 -0.000000 -0.000001 -0.000001 0.103563 1.192120 -9.929416 0.103563 1.192124 -9.929401 0.025934 0.598307 -4.964151 -0.000004 0.000001 0.000000 0.787117 5.188581 -9.457061 0.096221 -2.863096 -10.432498 0.025936 0.598308 -4.964156 -0.000000 -0.000000 -0.000000 1.582909 3.503247 6.196151 0.000000 0.000000 0.000000 -1.407470 34.869133 50.172722 -0.000001 15.709626 -0.000015 -13.046479 10.656891 4.351499 -2.082013 -13.461646 -8.150988 5.520675 -18.558749 -0.893712 -0.816670 -4.811720 -2.622799 0.000001 -0.000004 0.000001 0.104542 -1.203682 9.928041 0.104550 -1.203676 9.928035 0.026177 -0.604111 4.963461 -0.000000 0.000002 -0.000003 0.104543 -1.203683 9.928041 0.104550 -1.203676 9.928033 0.026180 -0.604112 4.963461 -0.000000 -0.000002 0.000000 0.104543 -1.203680 9.928039 0.104549 -1.203678 9.928036 0.026178 -0.604113 4.963458 0.000001 0.000000 0.000002 0.104542 -1.203683 9.928041 0.104549 -1.203678 9.928033 0.026177 -0.604111 4.963462 0.000001 0.000001 -0.000004 -65.545453 32.023212 23.503902 29.032798 -6.888143 6.331830 9.864952 0.009813 -11.128948 -0.000019 0.000002 -0.000004 0.000000 -0.000000 0.000000 -59.098512 -18.237384 -15.289054 46.264525 8.915040 -9.869452 -14.441824 4.986957 4.676732 -0.000000 0.000001 -0.000001 0.000000 0.000001 0.000000 
36.992599 85.564049 229.932770 156.600528 28.365321 197.127715 15.162308 -0.644827 -2.893965 10.953653 0.837397 -0.955193 0.000000 0.000000 0.000000 10.954575 0.799957 -0.983086 -5.251696 6.368993 -3.522342 -50.207170 26.623137 9.289112 -0.000000 0.000000 -0.000001 0.622382 -1.731085 -5.827599 0.000000 0.000000 0.000000 -13.083701 -30.686626 -48.210976 0.000003 -34.042161 0.000023 -23.818391 -15.432387 8.846140 -1.765968 13.580035 7.641501 4.742558 17.876572 1.476408 -0.125163 6.527496 3.024031 -0.000003 0.000001 0.000002 0.103558 1.192120 -9.929412 0.103561 1.192123 -9.929402 0.025934 0.598308 -4.964154 0.000001 0.000000 -0.000000 0.103227 1.190221 -9.913419 0.103903 1.194023 -9.945375 0.025931 0.598308 -4.964170 0.000000 -0.000000 -0.000001 0.103558 1.192120 -9.929412 0.103559 1.192123 -9.929401 0.025937 0.598307 -4.964150 -0.000002 0.000000 -0.000000 0.787112 5.188581 -9.457057 0.096221 -2.863095 -10.432499 0.025938 0.598309 -4.964157 -0.000000 0.000000 0.000000 1.594271 3.544300 6.237929 0.000000 0.000000 0.000000 -1.047005 34.831007 51.930987 -0.000005 11.007407 0.000000 -12.566547 11.701949 7.169249 -2.082012 -13.461646 -8.150989 5.520675 -18.558749 -0.893712 -0.816671 -4.811724 -2.622795 -0.000000 0.000002 -0.000001 0.104543 -1.203684 9.928042 0.104550 -1.203675 9.928033 0.026178 -0.604110 4.963462 -0.000000 -0.000001 -0.000001 0.104543 -1.203686 9.928040 0.104550 -1.203676 9.928033 0.026180 -0.604113 4.963463 -0.000001 0.000001 -0.000003 0.104543 -1.203683 9.928041 0.104550 -1.203677 9.928033 0.026179 -0.604108 4.963464 0.000001 -0.000003 -0.000001 0.104543 -1.203686 9.928039 0.104551 -1.203677 9.928033 0.026179 -0.604108 4.963466 0.000001 -0.000002 -0.000003 -64.495571 31.977139 23.238957 29.423249 -7.541511 6.913234 9.830396 -0.058206 -11.810525 -0.000014 0.000001 0.000003 0.000000 0.000000 -0.000000 -57.335559 -18.257273 -15.220672 46.839101 9.027583 -9.879124 -15.243053 4.108378 4.482740 -0.000003 -0.000006 -0.000001 0.000000 -0.000001 -0.000000 
